<svg version="1.1" id="Layer_1" xmlns="http://www.w3.org/2000/svg" xmlns:xlink="http://www.w3.org/1999/xlink" x="0px" y="0px"
	 width="533.61px" height="140.651px" viewBox="26.733 351.865 533.61 140.651"
	 enable-background="new 26.733 351.865 533.61 140.651" xml:space="preserve">
<g>
	<g id="Layer_1_1_">
		<path fill="#293F54" d="M312.492,456.181c-9.646-0.159-15.791-9.422-16.044-9.82c-1.06-1.499-2.131-2.324-3.063-2.339
			c-1.496-0.022-2.726,2.003-2.885,2.286c-2.162,4.952-5.069,5.955-7.128,5.921c-1.06-0.019-2.154-0.307-3.232-0.859
			c-1.673-0.863-2.476-2.813-1.912-4.645l1.73-5.606c0.882-2.854,2.96-5.156,5.724-6.314l6.246-2.627
			c1.215-0.512,2.472-0.75,3.842-0.728c1.336,0.023,2.71,0.288,3.993,0.572l16.82,4.273l6.629,16.218l-0.955,0.624
			C319.052,455.209,315.765,456.234,312.492,456.181z M293.431,441.266c1.874,0.03,3.657,1.223,5.295,3.547
			c0.084,0.129,5.645,8.479,13.803,8.612c2.404,0.042,4.838-0.636,7.258-2.014l-5.229-12.788l-15.434-3.922
			c-1.094-0.242-2.302-0.48-3.396-0.5c-0.996-0.015-1.855,0.151-2.737,0.516l-6.238,2.623c-1.999,0.844-3.517,2.518-4.161,4.588
			l-1.733,5.603c-0.17,0.546,0.064,1.136,0.538,1.378c2.691,1.378,4.91,0.167,6.598-3.763l0.042-0.099
			C288.123,444.896,290.107,441.214,293.431,441.266z"/>
		<path fill="#293F54" d="M313.529,464.832l-9.844-14.196l4.434,1.919c0.016,0.008,2.139,0.901,4.936,0.946
			c2.916,0.05,5.459-0.817,7.572-2.581l1.445-1.212l4.566,11.19L313.529,464.832z M310.814,456.079l3.834,5.535l8.291-2.483
			l-2.041-5.001c-2.297,1.461-4.947,2.181-7.885,2.131C312.23,456.246,311.488,456.177,310.814,456.079z"/>
		<polygon fill="#293F54" points="259.913,460.72 246.948,455.431 247.989,452.881 258.49,457.166 268.487,434.808 257.774,430.084 
			258.883,427.562 272.137,433.4 		"/>
		<path fill="#9C5C8F" d="M403.164,391.452c0.613-0.72,1.01,48.527-0.947,50.159c-14.195,11.829-62.436,21.327-62.436,21.327
			l-13.367-33.736C326.414,429.206,387.074,410.38,403.164,391.452z"/>
		<path fill="#FFC500" d="M184.013,390.032c-0.613-0.719-1.011,48.527,0.946,50.159c14.196,11.83,62.436,21.328,62.436,21.328
			l13.367-33.737C260.765,427.786,200.101,408.96,184.013,390.032z"/>
		<polygon fill="#293F54" points="325.097,464.4 313.775,436.693 327.216,431.288 328.246,433.846 317.378,438.219 326.638,460.89 
			337.279,456.954 338.236,459.535 		"/>
		<path fill="#293F54" d="M312.65,472.357c-1.385-0.022-2.711-0.613-3.68-1.67l-12.382-13.578c-0.507-0.561-0.47-1.432,0.091-1.946
			c0.56-0.515,1.435-0.473,1.95,0.087l12.383,13.583c0.564,0.621,1.363,0.882,2.188,0.727c0.83-0.162,1.469-0.708,1.76-1.499
			c0.229-0.613,0.121-1.291-0.275-1.813l-8.994-11.659c-0.467-0.605-0.35-1.469,0.25-1.935c0.602-0.47,1.469-0.355,1.938,0.25
			l8.986,11.659c0.988,1.28,1.238,2.941,0.686,4.452c-0.625,1.688-2.055,2.899-3.82,3.244
			C313.365,472.331,313.009,472.365,312.65,472.357z"/>
		<path fill="#293F54" d="M306.283,476.802c-1.863-0.03-3.631-0.811-4.939-2.219l-10.426-11.27
			c-0.519-0.561-0.481-1.431,0.076-1.949c0.557-0.515,1.431-0.481,1.953,0.079l10.423,11.27c1.006,1.087,2.475,1.549,3.928,1.242
			c1.408-0.303,2.525-1.287,2.988-2.639l0.053-0.159c0.234-0.727,1.01-1.124,1.736-0.89c0.721,0.234,1.121,1.011,0.887,1.734
			l-0.064,0.196c-0.779,2.283-2.658,3.944-5.027,4.448C307.343,476.756,306.808,476.809,306.283,476.802z"/>
		<path fill="#293F54" d="M299.4,480.754c-0.133,0-0.254-0.004-0.379-0.016c-1.763-0.121-3.421-0.988-4.678-2.438l-8.62-9.885
			c-0.5-0.571-0.439-1.441,0.132-1.941c0.58-0.504,1.442-0.443,1.954,0.133l8.604,9.888c0.769,0.878,1.795,1.423,2.801,1.499
			c1.654,0.125,3.102-0.791,4.313-2.699c0.404-0.644,1.252-0.833,1.9-0.424c0.643,0.405,0.836,1.261,0.428,1.9
			C303.761,480.064,301.255,480.788,299.4,480.754z"/>
		<path fill="#293F54" d="M287.502,436.731c-7.552-1.862-17.005-1.261-17.1-1.253l-0.186-2.752
			c0.409-0.023,9.979-0.637,17.944,1.328L287.502,436.731z"/>
		<path fill="#293F54" d="M292.654,482.775c-1.275-0.02-2.513-0.526-3.448-1.45l-4.043-4.013
			c-12.765-12.928-24.693-21.517-24.811-21.604l1.605-2.237c0.121,0.084,12.231,8.813,25.159,21.893l4.036,4.001
			c0.605,0.605,1.465,0.807,2.29,0.549c0.375-0.117,1.253-0.511,1.446-1.62l2.741,0.322l-0.026,0.151
			c-0.311,1.806-1.56,3.214-3.324,3.773C293.741,482.707,293.196,482.786,292.654,482.775z"/>
		<path fill="#293F54" d="M269.101,467.243c-0.999-0.016-1.995-0.367-2.816-1.067c-0.878-0.738-1.393-1.775-1.465-2.919
			c-0.076-1.144,0.318-2.237,1.094-3.078l1.102-1.192l2.025,1.874l-1.109,1.188c-0.254,0.288-0.386,0.655-0.36,1.037
			c0.019,0.387,0.201,0.738,0.492,0.988c0.704,0.595,1.745,0.53,2.37-0.151l1.075-1.173l2.025,1.858l-1.067,1.177
			C271.565,466.769,270.331,467.265,269.101,467.243z"/>
		<path fill="#293F54" d="M273.034,473.564c-1.121-0.019-2.241-0.428-3.142-1.237c-0.962-0.863-1.537-2.048-1.613-3.339
			c-0.068-1.291,0.375-2.529,1.23-3.494l2.256-2.51l2.048,1.84l-2.252,2.51c-0.371,0.412-0.553,0.946-0.526,1.499
			s0.276,1.067,0.696,1.431c0.841,0.758,2.113,0.704,2.889-0.117l2.419-2.544l1.995,1.896l-2.412,2.548
			C275.646,473.076,274.336,473.588,273.034,473.564z"/>
		<path fill="#293F54" d="M278.883,477.365c-1.181-0.019-2.34-0.465-3.252-1.34c-1.893-1.824-1.969-4.864-0.155-6.772l1.563-1.65
			l1.995,1.896l-1.563,1.646c-0.765,0.814-0.738,2.112,0.072,2.889c0.81,0.784,2.105,0.757,2.896-0.045l1.632-1.674l1.968,1.923
			l-1.624,1.674C281.449,476.9,280.162,477.388,278.883,477.365z"/>
		<path fill="#293F54" d="M284.459,481.018c-1.147-0.019-2.291-0.462-3.169-1.325c-1.806-1.775-1.836-4.693-0.068-6.511l0.617-0.632
			l1.972,1.923l-0.617,0.632c-0.711,0.734-0.7,1.912,0.03,2.631c0.719,0.716,1.896,0.712,2.616,0l0.859-0.855l1.938,1.961
			l-0.855,0.845C286.863,480.594,285.659,481.041,284.459,481.018z"/>
		<g>
			<path fill="#293F54" d="M554.158,492.516H408.3c-3.409,0-6.184-2.775-6.184-6.187V358.052c0-3.411,2.774-6.187,6.184-6.187
				h145.857c3.411,0,6.186,2.775,6.186,6.187V486.33C560.343,489.741,557.569,492.516,554.158,492.516z M408.3,354.365
				c-2.031,0-3.684,1.654-3.684,3.687V486.33c0,2.033,1.652,3.687,3.684,3.687h145.857c2.032,0,3.686-1.653,3.686-3.687V358.052
				c0-2.033-1.653-3.687-3.686-3.687H408.3z"/>
		</g>
		<g>
			<rect x="402.447" y="386.094" fill="#293F54" width="156.336" height="2.5"/>
		</g>
		<circle fill="#9C5C8F" cx="416.011" cy="370.696" r="4.009"/>
		<circle fill="#9C5C8F" cx="435.75" cy="370.696" r="4.009"/>
		<circle fill="#9C5C8F" cx="455.484" cy="370.696" r="4.009"/>
		<circle fill="#293F54" cx="482.005" cy="370.696" r="2.468"/>
		<circle fill="#293F54" cx="494.462" cy="370.696" r="2.464"/>
		<circle fill="#293F54" cx="506.925" cy="370.696" r="2.468"/>
		<circle fill="#293F54" cx="519.384" cy="370.696" r="2.468"/>
		<circle fill="#293F54" cx="531.837" cy="370.696" r="2.464"/>
		<circle fill="#293F54" cx="544.292" cy="370.696" r="2.464"/>
		<g>
			<path fill="#293F54" d="M178.777,492.516H32.919c-3.411,0-6.187-2.775-6.187-6.187V358.052c0-3.411,2.775-6.187,6.187-6.187
				h145.858c3.409,0,6.183,2.775,6.183,6.187V486.33C184.96,489.741,182.187,492.516,178.777,492.516z M32.919,354.365
				c-2.033,0-3.687,1.654-3.687,3.687V486.33c0,2.033,1.654,3.687,3.687,3.687h145.858c2.031,0,3.683-1.653,3.683-3.687V358.052
				c0-2.033-1.652-3.687-3.683-3.687H32.919z"/>
		</g>
		<g>
			<rect x="27.059" y="386.094" fill="#293F54" width="156.344" height="2.5"/>
		</g>
		<circle fill="#00B1CC" cx="40.63" cy="370.696" r="4.009"/>
		<circle fill="#00B1CC" cx="60.365" cy="370.696" r="4.009"/>
		<circle fill="#00B1CC" cx="80.103" cy="370.696" r="4.009"/>
		<circle fill="#293F54" cx="106.621" cy="370.696" r="2.464"/>
		<circle fill="#293F54" cx="119.083" cy="370.696" r="2.468"/>
		<circle fill="#293F54" cx="131.541" cy="370.696" r="2.468"/>
		<circle fill="#293F54" cx="144.003" cy="370.696" r="2.468"/>
		<circle fill="#293F54" cx="156.458" cy="370.696" r="2.468"/>
		<circle fill="#293F54" cx="168.912" cy="370.696" r="2.468"/>
		<g id="XMLID_184_">
			<path fill="#293F54" d="M71.786,437.477c-0.69,0-1.25-0.56-1.25-1.25v-14.279c0-2.18,1.775-3.953,3.957-3.953h34.578
				c0.69,0,1.25,0.56,1.25,1.25s-0.56,1.25-1.25,1.25H74.492c-0.803,0-1.457,0.652-1.457,1.453v14.279
				C73.036,436.918,72.476,437.477,71.786,437.477z"/>
		</g>
		<g id="XMLID_183_">
			<path fill="#293F54" d="M132.896,437.481c-0.69,0-1.25-0.56-1.25-1.25v-14.279c0-0.801-0.653-1.453-1.457-1.453h-6.863
				c-0.69,0-1.25-0.56-1.25-1.25s0.56-1.25,1.25-1.25h6.863c2.182,0,3.957,1.773,3.957,3.953v14.279
				C134.146,436.922,133.586,437.481,132.896,437.481z"/>
		</g>
		<g id="XMLID_182_">
			<path fill="#293F54" d="M143.208,461.047h-81.73c-0.422,0-0.815-0.213-1.046-0.565c-0.231-0.354-0.269-0.799-0.099-1.186
				l10.308-23.565c0.199-0.455,0.648-0.749,1.145-0.749h61.11c0.497,0,0.946,0.294,1.145,0.749l10.312,23.565
				c0.169,0.387,0.132,0.832-0.099,1.186C144.023,460.834,143.63,461.047,143.208,461.047z M63.389,458.547h77.908l-9.218-21.065
				H72.603L63.389,458.547z"/>
		</g>
		<g id="XMLID_181_">
			<path fill="#293F54" d="M135.837,456.651H68.708c-0.418,0-0.808-0.209-1.04-0.557s-0.274-0.788-0.114-1.175l6.159-14.774
				c0.194-0.465,0.649-0.769,1.154-0.769h54.822c0.505,0,0.96,0.304,1.154,0.77l6.148,14.774c0.16,0.386,0.118,0.826-0.114,1.174
				S136.255,456.651,135.837,456.651z M70.583,454.151h63.38l-5.108-12.274H75.7L70.583,454.151z"/>
		</g>
		<g id="XMLID_180_">
			<path fill="#293F54" d="M141.629,474.86H63.052c-1.558,0-2.825-1.268-2.825-2.825v-12.238c0-0.69,0.56-1.25,1.25-1.25
				s1.25,0.56,1.25,1.25v12.238c0,0.18,0.146,0.325,0.325,0.325h78.577c0.181,0,0.329-0.146,0.329-0.325v-12.238
				c0-0.69,0.56-1.25,1.25-1.25s1.25,0.56,1.25,1.25v12.238C144.458,473.593,143.189,474.86,141.629,474.86z"/>
		</g>
		<g id="XMLID_179_">
			<path fill="#293F54" d="M126.536,446.87h-3.967c-0.69,0-1.25-0.56-1.25-1.25s0.56-1.25,1.25-1.25h3.967
				c0.69,0,1.25,0.56,1.25,1.25S127.227,446.87,126.536,446.87z"/>
		</g>
		<g id="XMLID_178_">
			<path fill="#293F54" d="M120.158,446.87h-3.96c-0.69,0-1.25-0.56-1.25-1.25s0.56-1.25,1.25-1.25h3.96c0.69,0,1.25,0.56,1.25,1.25
				S120.848,446.87,120.158,446.87z"/>
		</g>
		<g id="XMLID_177_">
			<path fill="#293F54" d="M113.791,446.87h-3.964c-0.69,0-1.25-0.56-1.25-1.25s0.56-1.25,1.25-1.25h3.964
				c0.69,0,1.25,0.56,1.25,1.25S114.481,446.87,113.791,446.87z"/>
		</g>
		<g id="XMLID_176_">
			<path fill="#293F54" d="M126.536,451.655h-3.967c-0.69,0-1.25-0.56-1.25-1.25s0.56-1.25,1.25-1.25h3.967
				c0.69,0,1.25,0.56,1.25,1.25S127.227,451.655,126.536,451.655z"/>
		</g>
		<g id="XMLID_175_">
			<path fill="#293F54" d="M120.158,451.655h-3.96c-0.69,0-1.25-0.56-1.25-1.25s0.56-1.25,1.25-1.25h3.96
				c0.69,0,1.25,0.56,1.25,1.25S120.848,451.655,120.158,451.655z"/>
		</g>
		<g id="XMLID_174_">
			<path fill="#293F54" d="M113.791,451.655h-3.964c-0.69,0-1.25-0.56-1.25-1.25s0.56-1.25,1.25-1.25h3.964
				c0.69,0,1.25,0.56,1.25,1.25S114.481,451.655,113.791,451.655z"/>
		</g>
		<g id="XMLID_173_">
			<path fill="#293F54" d="M108.373,467.948H96.316c-0.69,0-1.25-0.56-1.25-1.25s0.56-1.25,1.25-1.25h12.057
				c0.69,0,1.25,0.56,1.25,1.25S109.063,467.948,108.373,467.948z"/>
		</g>
		<g id="XMLID_172_">
			<path fill="#293F54" d="M80.901,420.495c-0.69,0-1.25-0.56-1.25-1.25v-5.769c0-0.69,0.56-1.25,1.25-1.25s1.25,0.56,1.25,1.25
				v5.769C82.151,419.935,81.592,420.495,80.901,420.495z"/>
		</g>
		<g id="XMLID_171_">
			<path fill="#293F54" d="M88.779,414.726H73.027c-1.374,0-2.492-1.118-2.492-2.492v-7.007c0-1.374,1.118-2.491,2.492-2.491h15.752
				c1.372,0,2.488,1.118,2.488,2.491v7.007C91.267,413.608,90.151,414.726,88.779,414.726z M88.779,412.226v1.25V412.226
				L88.779,412.226L88.779,412.226z M88.767,405.227l-15.74,0.009l0.008,6.998l15.731-0.008V405.227z"/>
		</g>
		<g id="XMLID_170_">
			<path fill="#293F54" d="M123.326,430.614H109.07c-0.69,0-1.25-0.56-1.25-1.25v-20.62c0-0.69,0.56-1.25,1.25-1.25h1.586
				c0.279,0,0.551,0.094,0.771,0.266l2.457,1.925l1.327-1.708c0.237-0.305,0.602-0.483,0.987-0.483h7.128
				c0.69,0,1.25,0.56,1.25,1.25v20.62C124.576,430.054,124.017,430.614,123.326,430.614z M110.32,428.114h11.756v-18.12h-5.267
				l-1.722,2.216c-0.204,0.262-0.504,0.433-0.834,0.474c-0.333,0.041-0.663-0.052-0.924-0.257l-3.01-2.358V428.114z"/>
		</g>
		<g id="XMLID_169_">
			<path fill="#293F54" d="M126.888,430.614h-3.562c-0.69,0-1.25-0.56-1.25-1.25s0.56-1.25,1.25-1.25h3.562
				c0.69,0,1.25,0.56,1.25,1.25S127.579,430.614,126.888,430.614z"/>
		</g>
		<g id="XMLID_168_">
			<path fill="#293F54" d="M109.07,430.614h-3.445c-0.69,0-1.25-0.56-1.25-1.25s0.56-1.25,1.25-1.25h3.445
				c0.69,0,1.25,0.56,1.25,1.25S109.76,430.614,109.07,430.614z"/>
		</g>
		<g id="XMLID_167_">
			<path fill="#293F54" d="M120.158,416.918h-1.771c-0.69,0-1.25-0.56-1.25-1.25s0.56-1.25,1.25-1.25h1.771
				c0.69,0,1.25,0.56,1.25,1.25S120.848,416.918,120.158,416.918z"/>
		</g>
		<g id="XMLID_166_">
			<path fill="#293F54" d="M117.273,416.918h-5.08c-0.69,0-1.25-0.56-1.25-1.25s0.56-1.25,1.25-1.25h5.08
				c0.69,0,1.25,0.56,1.25,1.25S117.963,416.918,117.273,416.918z"/>
		</g>
		<g id="XMLID_165_">
			<path fill="#293F54" d="M120.158,423.668h-4.978c-0.69,0-1.25-0.56-1.25-1.25s0.56-1.25,1.25-1.25h4.978
				c0.69,0,1.25,0.56,1.25,1.25S120.848,423.668,120.158,423.668z"/>
		</g>
		<g id="XMLID_164_">
			<path fill="#293F54" d="M114.07,423.668h-1.877c-0.69,0-1.25-0.56-1.25-1.25s0.56-1.25,1.25-1.25h1.877
				c0.69,0,1.25,0.56,1.25,1.25S114.761,423.668,114.07,423.668z"/>
		</g>
		<path fill="#00B1CC" d="M99.568,444.177c0,0-13.817,2.903-24.988,7.893l2.301-7.893H99.568z"/>
		<path fill="#00B1CC" d="M102.524,423.137c0,0-19.397,1.317-26.631,9.861l-0.326-9.861H102.524z"/>
		<rect x="75.567" y="407.359" fill="#FFC500" width="10.187" height="2.301"/>
		<g id="XMLID_162_">
			<g>
				<path fill="#293F54" d="M292.5,407.666c-0.303,0-0.595-0.133-0.795-0.364c-2.389-2.782-5.236-5.088-7.988-7.321
					c-6.11-4.947-11.879-9.619-11.129-18.314c0.477-5.462,5.368-9.906,10.91-9.906c3.937,0,7.359,2.274,9.006,5.583
					c1.65-3.309,5.062-5.583,9.002-5.583c5.541,0,10.439,4.44,10.91,9.906c0.75,8.695-5.02,13.367-11.127,18.314
					c-2.752,2.23-5.598,4.535-7.987,7.321C293.094,407.533,292.806,407.666,292.5,407.666z M283.494,373.856
					c-4.486,0-8.438,3.585-8.821,7.991c-0.655,7.587,4.448,11.721,10.357,16.506c2.533,2.052,5.148,4.167,7.469,6.692
					c2.32-2.525,4.933-4.641,7.465-6.692c5.914-4.785,11.012-8.919,10.357-16.506c-0.379-4.41-4.338-7.991-8.82-7.991
					c-4.388,0-7.958,3.57-7.958,7.957c0,0.58-0.469,1.045-1.044,1.045c-0.576,0-1.049-0.469-1.049-1.045
					C291.447,377.423,287.881,373.856,283.494,373.856z"/>
				<path fill="#293F54" d="M292.5,407.807c-0.346,0-0.675-0.15-0.902-0.413c-2.368-2.758-5.193-5.051-7.925-7.268l-0.044-0.037
					c-6.139-4.971-11.938-9.666-11.181-18.437c0.483-5.534,5.44-10.036,11.051-10.036c3.803,0,7.229,2.067,9.006,5.415
					c1.781-3.348,5.206-5.415,9.002-5.415c5.617,0,10.575,4.502,11.052,10.036c0.756,8.769-5.04,13.463-11.176,18.434
					c-2.765,2.241-5.598,4.537-7.972,7.306C293.172,407.657,292.841,407.807,292.5,407.807z M283.497,371.901
					c-5.467,0-10.297,4.386-10.769,9.777c-0.743,8.621,4.999,13.27,11.078,18.192l0.044,0.037c2.742,2.225,5.577,4.526,7.961,7.303
					c0.348,0.401,1.02,0.406,1.384-0.002c2.389-2.786,5.232-5.091,7.982-7.32c6.101-4.941,11.84-9.59,11.096-18.209
					c-0.464-5.391-5.295-9.777-10.769-9.777c-3.781,0-7.182,2.109-8.875,5.505l-0.127,0.254l-0.127-0.255
					C290.687,374.01,287.284,371.901,283.497,371.901z M292.5,405.255l-0.104-0.114c-2.3-2.503-4.898-4.607-7.41-6.643l-0.044-0.035
					c-5.94-4.811-11.071-8.965-10.409-16.628c0.389-4.478,4.409-8.121,8.962-8.121c4.462,0,8.095,3.633,8.099,8.099
					c0,0.498,0.407,0.903,0.907,0.903c0.498,0,0.903-0.405,0.903-0.903c0-4.466,3.633-8.099,8.099-8.099
					c4.557,0,8.577,3.643,8.962,8.121c0.661,7.67-4.47,11.822-10.41,16.628c-2.536,2.055-5.141,4.166-7.449,6.678L292.5,405.255z
					 M283.494,373.998c-4.409,0-8.303,3.527-8.68,7.862c-0.648,7.513,4.428,11.624,10.306,16.383l0.043,0.036
					c2.482,2.011,5.048,4.089,7.336,6.558c2.296-2.478,4.87-4.563,7.359-6.581c5.894-4.769,10.971-8.876,10.321-16.396
					c-0.372-4.335-4.266-7.862-8.679-7.862c-4.31,0-7.816,3.506-7.816,7.815c0,0.654-0.532,1.187-1.186,1.187
					c-0.656,0-1.19-0.532-1.19-1.187C291.305,377.504,287.799,373.998,283.494,373.998z"/>
			</g>
		</g>
		<g>
			<g>
				<g>
					<g>
						<g>
							<path fill="#293F54" d="M457.082,474.163h-9.723v-33.899h9.723V474.163z M450.013,471.577h4.414v-28.732h-4.414V471.577z"/>
						</g>
					</g>
				</g>
			</g>
			<g>
				<g>
					<g>
						<g>
							<path fill="#293F54" d="M476.3,474.163h-9.723v-19.511h9.723V474.163z M469.232,471.577h4.418v-14.343h-4.418V471.577z"/>
						</g>
					</g>
				</g>
			</g>
			<g>
				<g>
					<g>
						<g>
							<path fill="#293F54" d="M495.519,474.163h-9.717v-33.899h9.717V474.163z M488.451,471.577h4.418v-28.732h-4.418V471.577z"/>
						</g>
					</g>
				</g>
			</g>
			<g>
				<g>
					<g>
						<g>
							<path fill="#293F54" d="M514.746,474.163h-9.721v-21.93h9.721V474.163z M507.675,471.577h4.414v-16.759h-4.414V471.577z"/>
						</g>
					</g>
				</g>
			</g>
			<g>
				<g>
					<g>
						<g>
							<path fill="#9C5C8F" d="M471.439,445.84c-0.283,0-0.564-0.088-0.811-0.27l-19.219-14.389
								c-0.578-0.432-0.693-1.245-0.242-1.813c0.443-0.567,1.279-0.674,1.859-0.238l18.412,13.783l18.414-13.783
								c0.441-0.333,1.047-0.359,1.521-0.064l19.223,11.97c0.613,0.383,0.795,1.186,0.396,1.783
								c-0.393,0.603-1.211,0.78-1.828,0.394L490.73,431.73l-18.484,13.833C472.015,445.752,471.724,445.84,471.439,445.84z"/>
						</g>
					</g>
				</g>
			</g>
		</g>
		<g>
			<g>
				<path fill="#9C5C8F" d="M420.748,415.054l-3.41-10.424h2.502l2.964,9.232h-1.251l3.097-9.232h2.234l2.978,9.232h-1.206
					l3.038-9.232H434l-3.41,10.424H428l-2.636-8.101h0.686l-2.71,8.101H420.748z"/>
				<path fill="#9C5C8F" d="M440.285,415.233c-0.824,0-1.586-0.134-2.286-0.402c-0.699-0.268-1.305-0.646-1.816-1.132
					s-0.908-1.057-1.191-1.712c-0.282-0.655-0.424-1.37-0.424-2.145s0.142-1.489,0.424-2.144c0.283-0.655,0.683-1.226,1.199-1.712
					c0.516-0.486,1.121-0.864,1.816-1.132c0.694-0.268,1.449-0.402,2.264-0.402c0.823,0,1.581,0.134,2.271,0.402
					c0.69,0.268,1.291,0.646,1.802,1.132c0.512,0.486,0.911,1.055,1.199,1.705c0.287,0.65,0.432,1.368,0.432,2.152
					c0,0.774-0.145,1.492-0.432,2.152c-0.288,0.66-0.688,1.231-1.199,1.712c-0.511,0.481-1.111,0.856-1.802,1.125
					C441.851,415.098,441.098,415.233,440.285,415.233z M440.27,413.177c0.466,0,0.896-0.079,1.288-0.238
					c0.392-0.159,0.737-0.387,1.035-0.685c0.297-0.298,0.528-0.65,0.692-1.058c0.163-0.407,0.245-0.858,0.245-1.355
					c0-0.496-0.082-0.948-0.245-1.355c-0.164-0.407-0.393-0.759-0.686-1.057s-0.638-0.526-1.035-0.685
					c-0.396-0.159-0.829-0.238-1.295-0.238c-0.467,0-0.896,0.08-1.288,0.238c-0.393,0.159-0.737,0.387-1.035,0.685
					s-0.528,0.65-0.692,1.057c-0.164,0.407-0.246,0.859-0.246,1.355c0,0.487,0.082,0.936,0.246,1.348
					c0.164,0.412,0.392,0.767,0.685,1.065s0.638,0.526,1.035,0.685C439.372,413.098,439.803,413.177,440.27,413.177z"/>
				<path fill="#9C5C8F" d="M452.853,415.233c-0.824,0-1.586-0.134-2.286-0.402c-0.699-0.268-1.305-0.646-1.816-1.132
					s-0.908-1.057-1.191-1.712c-0.282-0.655-0.424-1.37-0.424-2.145s0.142-1.489,0.424-2.144c0.283-0.655,0.683-1.226,1.199-1.712
					c0.516-0.486,1.121-0.864,1.816-1.132c0.694-0.268,1.449-0.402,2.264-0.402c0.823,0,1.581,0.134,2.271,0.402
					c0.69,0.268,1.291,0.646,1.802,1.132c0.512,0.486,0.911,1.055,1.199,1.705c0.287,0.65,0.432,1.368,0.432,2.152
					c0,0.774-0.145,1.492-0.432,2.152c-0.288,0.66-0.688,1.231-1.199,1.712c-0.511,0.481-1.111,0.856-1.802,1.125
					C454.419,415.098,453.667,415.233,452.853,415.233z M452.838,413.177c0.466,0,0.896-0.079,1.288-0.238
					c0.392-0.159,0.737-0.387,1.035-0.685c0.297-0.298,0.528-0.65,0.692-1.058c0.163-0.407,0.245-0.858,0.245-1.355
					c0-0.496-0.082-0.948-0.245-1.355c-0.164-0.407-0.393-0.759-0.686-1.057s-0.638-0.526-1.035-0.685
					c-0.396-0.159-0.829-0.238-1.295-0.238c-0.467,0-0.896,0.08-1.288,0.238c-0.393,0.159-0.737,0.387-1.035,0.685
					s-0.528,0.65-0.692,1.057c-0.164,0.407-0.246,0.859-0.246,1.355c0,0.487,0.082,0.936,0.246,1.348
					c0.164,0.412,0.392,0.767,0.685,1.065s0.638,0.526,1.035,0.685C451.94,413.098,452.372,413.177,452.838,413.177z"/>
				<path fill="#293F54" d="M458.839,415.054l4.646-10.424h2.383l4.661,10.424h-2.532l-3.812-9.203h0.953l-3.827,9.203H458.839z
					 M461.163,412.821l0.64-1.832h5.361l0.655,1.832H461.163z"/>
				<path fill="#293F54" d="M471.616,415.054V404.63h1.995l6.149,7.505h-0.968v-7.505h2.383v10.424h-1.98l-6.165-7.505h0.968v7.505
					H471.616z"/>
				<path fill="#293F54" d="M482.277,415.054l4.646-10.424h2.383l4.661,10.424h-2.532l-3.812-9.203h0.953l-3.827,9.203H482.277z
					 M484.6,412.821l0.64-1.832h5.361l0.655,1.832H484.6z"/>
				<path fill="#293F54" d="M495.053,415.054V404.63h2.412v8.458h5.227v1.966H495.053z"/>
				<path fill="#293F54" d="M505.567,415.054v-4.259l0.551,1.459l-4.586-7.625h2.561l3.515,5.853h-1.475l3.529-5.853h2.368
					l-4.587,7.625l0.536-1.459v4.259H505.567z"/>
				<path fill="#293F54" d="M515.007,415.054v-8.458h-3.336v-1.966h9.083v1.966h-3.335v8.458H515.007z"/>
				<path fill="#293F54" d="M522.051,415.054V404.63h2.412v10.424H522.051z"/>
				<path fill="#293F54" d="M531.923,415.233c-0.805,0-1.552-0.132-2.241-0.395c-0.69-0.263-1.288-0.638-1.794-1.125
					c-0.507-0.486-0.901-1.057-1.185-1.712c-0.282-0.655-0.424-1.375-0.424-2.159s0.142-1.504,0.424-2.159
					c0.283-0.655,0.68-1.226,1.191-1.712s1.109-0.861,1.795-1.124c0.685-0.263,1.434-0.395,2.248-0.395
					c0.903,0,1.72,0.157,2.449,0.469c0.73,0.313,1.343,0.772,1.84,1.377l-1.549,1.43c-0.357-0.407-0.755-0.712-1.191-0.916
					c-0.438-0.203-0.914-0.305-1.43-0.305c-0.486,0-0.934,0.08-1.34,0.238c-0.407,0.159-0.76,0.387-1.058,0.685
					s-0.528,0.65-0.692,1.057c-0.164,0.407-0.246,0.859-0.246,1.355c0,0.497,0.082,0.948,0.246,1.355
					c0.164,0.407,0.395,0.76,0.692,1.058s0.65,0.526,1.058,0.685c0.406,0.159,0.854,0.238,1.34,0.238
					c0.516,0,0.992-0.102,1.43-0.305c0.437-0.203,0.834-0.514,1.191-0.931l1.549,1.43c-0.497,0.605-1.109,1.067-1.84,1.385
					C533.658,415.074,532.836,415.233,531.923,415.233z"/>
				<path fill="#293F54" d="M541.215,415.233c-0.834,0-1.634-0.112-2.397-0.335c-0.765-0.224-1.38-0.514-1.847-0.871l0.819-1.817
					c0.446,0.318,0.975,0.579,1.586,0.782c0.61,0.204,1.229,0.305,1.854,0.305c0.477,0,0.861-0.047,1.154-0.141
					c0.292-0.094,0.509-0.226,0.647-0.395c0.139-0.169,0.208-0.362,0.208-0.581c0-0.278-0.108-0.499-0.327-0.663
					c-0.219-0.164-0.506-0.298-0.863-0.402c-0.357-0.104-0.752-0.204-1.185-0.298c-0.432-0.094-0.863-0.211-1.295-0.35
					c-0.432-0.139-0.826-0.317-1.184-0.536c-0.357-0.218-0.648-0.506-0.871-0.864c-0.224-0.357-0.336-0.813-0.336-1.37
					c0-0.596,0.162-1.139,0.484-1.631c0.322-0.491,0.809-0.883,1.459-1.176c0.65-0.292,1.467-0.439,2.45-0.439
					c0.655,0,1.3,0.077,1.936,0.231c0.635,0.154,1.196,0.385,1.683,0.692l-0.744,1.832c-0.487-0.278-0.974-0.484-1.46-0.618
					c-0.486-0.134-0.963-0.201-1.43-0.201s-0.849,0.055-1.146,0.164c-0.298,0.109-0.511,0.251-0.64,0.425
					c-0.13,0.174-0.194,0.375-0.194,0.603c0,0.268,0.109,0.484,0.328,0.647c0.218,0.164,0.506,0.295,0.863,0.395
					c0.357,0.1,0.752,0.199,1.185,0.298c0.432,0.1,0.863,0.214,1.295,0.343s0.826,0.303,1.184,0.521
					c0.357,0.219,0.648,0.506,0.871,0.864c0.224,0.357,0.335,0.809,0.335,1.355c0,0.586-0.163,1.122-0.491,1.608
					c-0.327,0.486-0.816,0.878-1.467,1.176S542.208,415.233,541.215,415.233z"/>
			</g>
		</g>
	</g>
	<g id="txt">
	</g>
</g>
</svg>
