<?xml version="1.0" encoding="UTF-8"?>
<!-- Generator: Adobe Illustrator 16.0.0, SVG Export Plug-In . SVG Version: 6.00 Build 0)  -->
<!DOCTYPE svg PUBLIC "-//W3C//DTD SVG 1.1//EN" "http://www.w3.org/Graphics/SVG/1.1/DTD/svg11.dtd">
<svg version="1.1" xmlns="http://www.w3.org/2000/svg" xmlns:xlink="http://www.w3.org/1999/xlink" x="0px" y="0px" width="32.13px" height="28.567px" viewBox="0 0 32.13 28.567" enable-background="new 0 0 32.13 28.567" xml:space="preserve">
<g id="Layer_1">
	<g>
		<g>
			<path fill="none" stroke="#293F54" stroke-width="0.5669" stroke-miterlimit="10" d="M31.846,27.284c0,0.552-0.448,1-1,1H1.284     c-0.552,0-1-0.448-1-1v-26c0-0.552,0.448-1,1-1h29.563c0.552,0,1,0.448,1,1V27.284z"/>
			
				<line fill="none" stroke="#293F54" stroke-width="0.5669" stroke-miterlimit="10" x1="0.096" y1="7.221" x2="31.784" y2="7.221"/>
			<circle fill="#00B1CC" cx="2.846" cy="3.846" r="0.813"/>
			<circle fill="#00B1CC" cx="6.846" cy="3.846" r="0.813"/>
			<circle fill="#00B1CC" cx="10.846" cy="3.846" r="0.813"/>
			<circle fill="#293F54" cx="16.221" cy="3.846" r="0.5"/>
			<circle fill="#293F54" cx="18.746" cy="3.846" r="0.5"/>
			<circle fill="#293F54" cx="21.271" cy="3.846" r="0.5"/>
			<circle fill="#293F54" cx="23.796" cy="3.846" r="0.5"/>
			<circle fill="#293F54" cx="26.321" cy="3.846" r="0.5"/>
			<circle fill="#293F54" cx="28.846" cy="3.846" r="0.5"/>
		</g>
	</g>
	<g id="XMLID_1360_">
		
			<path id="XMLID_137_" fill="none" stroke="#293F54" stroke-width="0.4845" stroke-linecap="round" stroke-linejoin="round" stroke-miterlimit="10" d="    M16.717,13.687H9.709c-0.302,0-0.548,0.245-0.548,0.548v2.894"/>
		
			<path id="XMLID_135_" fill="none" stroke="#293F54" stroke-width="0.4845" stroke-linecap="round" stroke-linejoin="round" stroke-miterlimit="10" d="    M21.547,17.129v-2.894c0-0.303-0.246-0.548-0.548-0.548h-1.392"/>
		
			<polygon id="XMLID_134_" fill="none" stroke="#293F54" stroke-width="0.4845" stroke-linecap="round" stroke-linejoin="round" stroke-miterlimit="10" points="    23.636,21.905 21.547,17.129 9.161,17.129 7.071,21.905   "/>
		
			<polyline id="XMLID_133_" fill="none" stroke="#293F54" stroke-width="0.4845" stroke-linecap="round" stroke-linejoin="round" stroke-miterlimit="10" points="    15.454,21.015 22.143,21.015 20.896,18.021 9.785,18.021 8.538,21.015 15.454,21.015   "/>
		
			<path id="XMLID_130_" fill="none" stroke="#293F54" stroke-width="0.4845" stroke-linecap="round" stroke-linejoin="round" stroke-miterlimit="10" d="    M23.636,21.905v2.48c0,0.176-0.143,0.319-0.319,0.319H7.391c-0.176,0-0.319-0.143-0.319-0.319v-2.48"/>
		
			<line id="XMLID_128_" fill="none" stroke="#293F54" stroke-width="0.4845" stroke-linecap="round" stroke-linejoin="round" stroke-miterlimit="10" x1="20.257" y1="19.032" x2="19.454" y2="19.032"/>
		
			<line id="XMLID_127_" fill="none" stroke="#293F54" stroke-width="0.4845" stroke-linecap="round" stroke-linejoin="round" stroke-miterlimit="10" x1="18.965" y1="19.032" x2="18.162" y2="19.032"/>
		
			<line id="XMLID_125_" fill="none" stroke="#293F54" stroke-width="0.4845" stroke-linecap="round" stroke-linejoin="round" stroke-miterlimit="10" x1="17.673" y1="19.032" x2="16.87" y2="19.032"/>
		
			<line id="XMLID_123_" fill="none" stroke="#293F54" stroke-width="0.4845" stroke-linecap="round" stroke-linejoin="round" stroke-miterlimit="10" x1="20.257" y1="20.002" x2="19.454" y2="20.002"/>
		
			<line id="XMLID_122_" fill="none" stroke="#293F54" stroke-width="0.4845" stroke-linecap="round" stroke-linejoin="round" stroke-miterlimit="10" x1="18.965" y1="20.002" x2="18.162" y2="20.002"/>
		
			<line id="XMLID_121_" fill="none" stroke="#293F54" stroke-width="0.4845" stroke-linecap="round" stroke-linejoin="round" stroke-miterlimit="10" x1="17.673" y1="20.002" x2="16.87" y2="20.002"/>
		
			<line id="XMLID_120_" fill="none" stroke="#293F54" stroke-width="0.4845" stroke-linecap="round" stroke-linejoin="round" stroke-miterlimit="10" x1="14.132" y1="23.305" x2="16.576" y2="23.305"/>
		
			<line id="XMLID_119_" fill="none" stroke="#293F54" stroke-width="0.4845" stroke-linecap="round" stroke-linejoin="round" stroke-miterlimit="10" x1="11.008" y1="13.687" x2="11.008" y2="12.518"/>
		
			<path id="XMLID_118_" fill="none" stroke="#293F54" stroke-width="0.4845" stroke-linecap="round" stroke-linejoin="round" stroke-miterlimit="10" d="    M12.604,12.518H9.413c-0.139,0-0.252-0.113-0.252-0.251v-1.42c0-0.139,0.113-0.251,0.252-0.251h3.192    c0.139,0,0.251,0.113,0.251,0.251v1.42C12.856,12.405,12.743,12.518,12.604,12.518z"/>
		
			<polygon id="XMLID_117_" fill="none" stroke="#293F54" stroke-width="0.4845" stroke-linecap="round" stroke-linejoin="round" stroke-miterlimit="10" points="    16.717,11.559 17.039,11.559 17.737,12.105 18.162,11.559 19.606,11.559 19.606,15.738 16.717,15.738   "/>
		
			<line id="XMLID_116_" fill="none" stroke="#293F54" stroke-width="0.4845" stroke-linecap="round" stroke-linejoin="round" stroke-miterlimit="10" x1="19.606" y1="15.738" x2="20.328" y2="15.738"/>
		
			<line id="XMLID_115_" fill="none" stroke="#293F54" stroke-width="0.4845" stroke-linecap="round" stroke-linejoin="round" stroke-miterlimit="10" x1="16.717" y1="15.738" x2="16.02" y2="15.738"/>
		
			<line id="XMLID_114_" fill="none" stroke="#293F54" stroke-width="0.4845" stroke-linecap="round" stroke-linejoin="round" stroke-miterlimit="10" x1="18.605" y1="12.962" x2="18.965" y2="12.962"/>
		
			<line id="XMLID_113_" fill="none" stroke="#293F54" stroke-width="0.4845" stroke-linecap="round" stroke-linejoin="round" stroke-miterlimit="10" x1="17.35" y1="12.962" x2="18.38" y2="12.962"/>
		
			<line id="XMLID_104_" fill="none" stroke="#293F54" stroke-width="0.4845" stroke-linecap="round" stroke-linejoin="round" stroke-miterlimit="10" x1="17.955" y1="14.33" x2="18.965" y2="14.33"/>
		
			<line id="XMLID_103_" fill="none" stroke="#293F54" stroke-width="0.4845" stroke-linecap="round" stroke-linejoin="round" stroke-miterlimit="10" x1="17.35" y1="14.33" x2="17.73" y2="14.33"/>
	</g>
	<path fill="#00B1CC" d="M14.791,18.74c0,0-2.8,0.588-5.064,1.6l0.467-1.6H14.791z"/>
	<path fill="#00B1CC" d="M15.391,14.476c0,0-3.932,0.267-5.397,1.999l-0.066-1.999H15.391z"/>
	<rect x="9.927" y="11.277" fill="#FFC500" width="2.065" height="0.466"/>
</g>
<g id="txt">
</g>
</svg>